<svg width="192" xmlns="http://www.w3.org/2000/svg" height="192" id="screenshot-5ff11bb3-cfbd-8092-8004-b26b0dc374be" fill="none" version="1.1"><style>@font-face{font-family:&apos;Onest&apos;;font-style:normal;font-weight:900;font-display:block;src:url(https://design.penpot.app/assets/by-id/8a895490-4da2-11ed-9ecb-aec52455fe53) format(&apos;woff&apos;)}</style><g id="shape-5ff11bb3-cfbd-8092-8004-b26b0dc374be" data-testid="Logo"><defs><clipPath id="frame-clip-5ff11bb3-cfbd-8092-8004-b26b0dc374be-render-1" class="frame-clip frame-clip-def"><rect rx="0" ry="0" width="192" height="192"/></clipPath></defs><g clip-path="url(#frame-clip-5ff11bb3-cfbd-8092-8004-b26b0dc374be-render-1)"><g class="fills" id="fills-5ff11bb3-cfbd-8092-8004-b26b0dc374be"><rect rx="0" ry="0" width="192" height="192" class="frame-background"/></g><g class="frame-children"><g id="shape-5ff11bb3-cfbd-8092-8004-b26e6648d1a4" data-testid="Union"><path d="M96 7.5c48.844 0 88.5 39.656 88.5 88.5s-39.656 88.5-88.5 88.5S7.5 144.844 7.5 96 47.156 7.5 96 7.5ZM84.706 30.528c-27.629 4.724-49.454 26.549-54.178 54.178l54.178-54.178Zm-53.903 78.173c5.148 26.417 25.984 47.254 52.401 52.401l-52.401-52.401Zm79.447 52.08c25.166-5.533 44.998-25.365 50.531-50.531l-50.531 50.531Zm50.852-77.577c-5.147-26.417-25.984-47.253-52.401-52.401l52.401 52.401Zm-20.198 6.235-40.066-40.065a6.044 6.044 0 0 0-8.544 0L52.229 89.439h88.675Zm-88.167 13.027 39.557 39.558a6.044 6.044 0 0 0 8.544 0l39.558-39.558H52.737Z" style="fill: rgb(231, 109, 109); fill-opacity: 1;" class="fills" id="fills-5ff11bb3-cfbd-8092-8004-b26e6648d1a4"/></g><g class="text-container" id="shape-5ff11bb3-cfbd-8092-8004-b26e821aaca3" data-testid="1011"><defs><pattern patternUnits="userSpaceOnUse" x="48" y="73.5" width="95.188" height="47" id="fill-0-render-3-0"><rect width="95.188" height="47" style="fill: rgb(38, 12, 12); fill-opacity: 1;"/></pattern></defs><text x="48" y="119.5" dominant-baseline="ideographic" textLength="95.188" lengthAdjust="spacingAndGlyphs" style="text-transform: none; font-family: Onest; letter-spacing: normal; font-style: normal; font-weight: 900; white-space: pre; font-size: 37.5px; text-decoration: none solid rgb(38, 12, 12); direction: ltr; fill: rgb(38, 12, 12); fill-opacity: 1;" class="fills" id="fills-5ff11bb3-cfbd-8092-8004-b26e821aaca3">01011</text></g></g></g></g></svg>